# xmcd CD database file
#
# Track frame offsets:
#	150
#	14538
#	27575
#	39979
#	51894
#	65462
#	78244
#	90869
#	104665
#	117816
#	131486
#	144488
#	156946
#	169868
#	185005
#	197375
#	212040
#	224672
#
# Disc length: 3177 seconds
#
# Revision: 2
# Processed by: cddbd v1.5.2PL0 Copyright (c) Steve Scherf et al.
# Submitted via: CDex 1.70beta2
#
DISCID=fe0c6712
DTITLE=various artist - Blues Spirit CD 4
DYEAR=1900
DGENRE=Blues
TTITLE0=01_Muddy Waters - I Be Bound To Write To You
TTITLE1=02_John Lee Hooker - Do My Baby Think Of Me
TTITLE2=03_Leadbelly - Eagle Rock Rag
TTITLE3=04_Lightnin' Hopkins - West Coast Blues
TTITLE4=05_Jelly Roll Morton - Blue Blood Blues
TTITLE5=06_Brownie McGhee and Blind Boy Fuller - Good-Bye Now
TTITLE6=07_Champion Jack Dupree - Warehouse Man Blues
TTITLE7=08_Blind Willie Mc Tell - Georgia Rag
TTITLE8=09_Arthur Big Boy Crudup - Crudup's After Hours
TTITLE9=10_T-Bone Walker - Hard Pain Blues
TTITLE10=11_Kokomo Arnold - Fool Man Blues
TTITLE11=12_Big Joe Williams - I'm Getting Wild About Her
TTITLE12=13_Jelly Roll Morton - West End Blues
TTITLE13=14_Muddy Waters - 32-20 Blues
TTITLE14=15_T-Bone Walker - I Know Your Wig Is Gone
TTITLE15=16_Big Joe Williams - Highway 49
TTITLE16=17_Brownie McGhee - Be Good To Me
TTITLE17=18_Mississippi John Hurt - Avalon Blues
EXTD=
EXTT0=
EXTT1=
EXTT2=
EXTT3=
EXTT4=
EXTT5=
EXTT6=
EXTT7=
EXTT8=
EXTT9=
EXTT10=
EXTT11=
EXTT12=
EXTT13=
EXTT14=
EXTT15=
EXTT16=
EXTT17=
PLAYORDER=
